# xmcd CD database file
#
# Track frame offsets:
#	150
#	15926
#	31618
#	48888
#	70201
#	88716
#	101118
#	115258
#	129493
#	141396
#
# Disc length: 2069 seconds
#
# Revision: 3
# Processed by: cddbd v1.5.2PL0 Copyright (c) Steve Scherf et al.
# Submitted via: CDex 1.51
#
DISCID=7d08130a
DTITLE=Kenny Rogers - Love Songs
DYEAR=1999
DGENRE=Ballad - Country
TTITLE0=Through the Years
TTITLE1=Unchained Melody
TTITLE2=Lady
TTITLE3=Always and Forever
TTITLE4=My Funny Valentine
TTITLE5=Somewhere My Love
TTITLE6=You Are So Beautiful
TTITLE7=You Light Up My Life
TTITLE8=Love Is A Many Splendored Thing
TTITLE9=Love Me Tender
EXTD=YEAR: 1999
EXTT0=
EXTT1=
EXTT2=
EXTT3=
EXTT4=
EXTT5=
EXTT6=
EXTT7=
EXTT8=
EXTT9=
PLAYORDER=
